STARTFONT 2.1
FONT -Adobe-Utopia-Regular-R-Normal--25-180-100-100-P-135-ISO8859-2
SIZE 18 100 100
FONTBOUNDINGBOX 33 29 -4 -6
STARTPROPERTIES 29
FOUNDRY "Adobe"
FAMILY_NAME "Utopia"
WEIGHT_NAME "Regular"
SLANT "R"
SETWIDTH_NAME "Normal"
ADD_STYLE_NAME ""
PIXEL_SIZE 25
POINT_SIZE 180
RESOLUTION_X 100
RESOLUTION_Y 100
SPACING "P"
AVERAGE_WIDTH 135
CHARSET_REGISTRY "ISO8859"
CHARSET_ENCODING "2"
CAP_HEIGHT 17
X_HEIGHT 12
RELATIVE_SETWIDTH 50
RELATIVE_WEIGHT 50
WEIGHT 136
FACE_NAME "Utopia Regular"
COPYRIGHT "Copyright (c) 1989, 1991 Adobe Systems Incorporated.  All Rights Reserved., Copyright 1996 Cub Soft"
NOTICE "Utopia is a registered trademark of Adobe Systems Incorporated."
DESTINATION 0
FONT_ASCENT 23
FONT_DESCENT 6
DEFAULT_CHAR 32
_ADOBE_PSFONT "Utopia-Regular"
_ADOBE_XFONT "-Adobe-Utopia-Regular-R-Normal--25-180-100-100-P-135-ISO8859-2"
_DEC_DEVICE_FONTNAMES "PS=Utopia-Regular"
ENDPROPERTIES
CHARS 191
STARTCHAR space
ENCODING 32
SWIDTH 225 0
DWIDTH 6 0
BBX 0 0 0 0
BITMAP
ENDCHAR
STARTCHAR exclam
ENCODING 33
SWIDTH 242 0
DWIDTH 6 0
BBX 3 18 2 0
BITMAP
e0
e0
e0
e0
e0
40
40
40
40
40
40
40
00
00
00
e0
e0
e0
ENDCHAR
STARTCHAR quotedbl
ENCODING 34
SWIDTH 458 0
DWIDTH 11 0
BBX 6 7 3 12
BITMAP
cc
cc
cc
cc
48
48
48
ENDCHAR
STARTCHAR numbersign
ENCODING 35
SWIDTH 530 0
DWIDTH 13 0
BBX 13 17 0 0
BITMAP
0010
0620
0420
0420
0460
0c40
7ff8
0840
08c0
1880
fff0
1180
3100
3100
2100
2300
6300
ENDCHAR
STARTCHAR dollar
ENCODING 36
SWIDTH 530 0
DWIDTH 13 0
BBX 11 21 1 -2
BITMAP
0400
0400
1f00
65c0
c4c0
c440
c400
e400
7c00
3e00
1f80
07c0
04e0
0460
0460
c460
c440
64c0
3f00
0400
0400
ENDCHAR
STARTCHAR percent
ENCODING 37
SWIDTH 838 0
DWIDTH 21 0
BBX 19 19 1 -1
BITMAP
000200
3c0200
67fc00
c30c00
c30800
c31000
c33000
c32000
666000
3c4780
008cc0
019860
011860
021860
021860
041860
0c0cc0
180780
080000
ENDCHAR
STARTCHAR ampersand
ENCODING 38
SWIDTH 706 0
DWIDTH 18 0
BBX 16 17 1 0
BITMAP
0f00
1980
30c0
30c0
30c0
3980
1b06
0c06
1e06
6704
438c
c1c8
c0e8
c0f0
e07c
70ce
1f03
ENDCHAR
STARTCHAR apostrophe
ENCODING 39
SWIDTH 278 0
DWIDTH 7 0
BBX 3 7 2 12
BITMAP
40
60
60
60
40
40
80
ENDCHAR
STARTCHAR parenleft
ENCODING 40
SWIDTH 350 0
DWIDTH 9 0
BBX 6 21 2 -3
BITMAP
0c
10
30
60
60
40
c0
c0
c0
c0
c0
c0
c0
c0
c0
40
60
60
30
18
0c
ENDCHAR
STARTCHAR parenright
ENCODING 41
SWIDTH 350 0
DWIDTH 9 0
BBX 6 21 0 -3
BITMAP
c0
60
30
18
18
08
0c
0c
0c
0c
0c
0c
0c
0c
0c
08
18
18
30
60
c0
ENDCHAR
STARTCHAR asterisk
ENCODING 42
SWIDTH 412 0
DWIDTH 10 0
BBX 8 9 1 9
BITMAP
18
18
cb
76
18
76
cb
18
18
ENDCHAR
STARTCHAR plus
ENCODING 43
SWIDTH 570 0
DWIDTH 14 0
BBX 12 13 1 0
BITMAP
0600
0600
0600
0600
0600
0600
fff0
0600
0600
0600
0600
0600
0600
ENDCHAR
STARTCHAR comma
ENCODING 44
SWIDTH 265 0
DWIDTH 7 0
BBX 3 7 2 -4
BITMAP
40
e0
60
40
40
80
80
ENDCHAR
STARTCHAR minus
ENCODING 45
SWIDTH 570 0
DWIDTH 14 0
BBX 12 1 1 6
BITMAP
fff0
ENDCHAR
STARTCHAR period
ENCODING 46
SWIDTH 265 0
DWIDTH 7 0
BBX 3 3 2 0
BITMAP
e0
e0
e0
ENDCHAR
STARTCHAR slash
ENCODING 47
SWIDTH 460 0
DWIDTH 11 0
BBX 7 18 2 0
BITMAP
06
06
04
0c
0c
08
18
18
10
10
30
30
20
60
60
40
c0
c0
ENDCHAR
STARTCHAR zero
ENCODING 48
SWIDTH 530 0
DWIDTH 13 0
BBX 11 17 1 0
BITMAP
0e00
3180
60c0
60c0
c0c0
c060
c060
c060
c060
c060
c060
c060
c0c0
60c0
60c0
3180
0e00
ENDCHAR
STARTCHAR one
ENCODING 49
SWIDTH 530 0
DWIDTH 13 0
BBX 8 17 3 0
BITMAP
18
f8
18
18
18
18
18
18
18
18
18
18
18
18
18
18
ff
ENDCHAR
STARTCHAR two
ENCODING 50
SWIDTH 530 0
DWIDTH 13 0
BBX 12 17 0 0
BITMAP
0f80
38c0
7060
6060
2060
0060
0060
00c0
0180
0300
0600
0c00
1000
3010
6020
7fe0
ffe0
ENDCHAR
STARTCHAR three
ENCODING 51
SWIDTH 530 0
DWIDTH 13 0
BBX 11 17 1 0
BITMAP
1f00
7180
e0c0
c0c0
00c0
00c0
0180
1f00
01c0
00c0
0060
0060
0060
6060
60c0
70c0
1f00
ENDCHAR
STARTCHAR four
ENCODING 52
SWIDTH 530 0
DWIDTH 13 0
BBX 12 17 1 0
BITMAP
0180
0380
0380
0780
0580
0980
1980
1180
2180
6180
4180
fff0
0180
0180
0180
0180
07e0
ENDCHAR
STARTCHAR five
ENCODING 53
SWIDTH 530 0
DWIDTH 13 0
BBX 11 17 1 0
BITMAP
7fc0
7fc0
4000
4000
4000
4000
5f00
61c0
40c0
0060
0060
0060
0060
c060
c0c0
6180
3f00
ENDCHAR
STARTCHAR six
ENCODING 54
SWIDTH 530 0
DWIDTH 13 0
BBX 11 17 1 0
BITMAP
0f80
30c0
6060
6060
6000
c000
c000
cf80
f1c0
e0e0
c060
c060
c060
6060
60c0
31c0
1f00
ENDCHAR
STARTCHAR seven
ENCODING 55
SWIDTH 530 0
DWIDTH 13 0
BBX 11 17 1 0
BITMAP
7fe0
ffc0
80c0
00c0
0180
0100
0300
0200
0400
0400
0c00
0800
0800
1800
1800
1800
1800
ENDCHAR
STARTCHAR eight
ENCODING 56
SWIDTH 530 0
DWIDTH 13 0
BBX 11 17 1 0
BITMAP
1f00
3180
60c0
60c0
60c0
60c0
2080
3180
1f00
71c0
60c0
c060
c060
c060
e0c0
60c0
1f00
ENDCHAR
STARTCHAR nine
ENCODING 57
SWIDTH 530 0
DWIDTH 13 0
BBX 11 17 1 0
BITMAP
1f00
7180
60c0
c0c0
c060
c060
c060
e0e0
71e0
3e60
0060
0060
00c0
c0c0
c0c0
6380
3e00
ENDCHAR
STARTCHAR colon
ENCODING 58
SWIDTH 265 0
DWIDTH 7 0
BBX 3 13 2 0
BITMAP
40
e0
e0
00
00
00
00
00
00
00
e0
e0
40
ENDCHAR
STARTCHAR semicolon
ENCODING 59
SWIDTH 265 0
DWIDTH 7 0
BBX 3 16 2 -3
BITMAP
c0
e0
e0
00
00
00
00
00
40
e0
60
60
40
40
80
80
ENDCHAR
STARTCHAR less
ENCODING 60
SWIDTH 570 0
DWIDTH 14 0
BBX 11 13 1 0
BITMAP
0020
00e0
03e0
0f00
3c00
f000
8000
e000
3800
0f00
03c0
00e0
0020
ENDCHAR
STARTCHAR equal
ENCODING 61
SWIDTH 570 0
DWIDTH 14 0
BBX 12 6 1 3
BITMAP
fff0
0000
0000
0000
0000
fff0
ENDCHAR
STARTCHAR greater
ENCODING 62
SWIDTH 570 0
DWIDTH 14 0
BBX 11 13 2 0
BITMAP
8000
e000
f800
1e00
0780
01e0
0020
00e0
0380
1e00
7800
e000
8000
ENDCHAR
STARTCHAR question
ENCODING 63
SWIDTH 389 0
DWIDTH 10 0
BBX 8 18 1 0
BITMAP
3c
66
c3
c3
03
06
0e
1c
30
60
60
70
3e
00
00
18
38
18
ENDCHAR
STARTCHAR at
ENCODING 64
SWIDTH 793 0
DWIDTH 20 0
BBX 18 18 1 0
BITMAP
01f800
070600
1c0100
380080
300c80
607c40
60c840
418840
c31840
c31840
c61080
c67080
c6b300
631c00
600000
300000
1c0c00
07f000
ENDCHAR
STARTCHAR A
ENCODING 65
SWIDTH 635 0
DWIDTH 16 0
BBX 17 18 -1 0
BITMAP
00c000
01c000
01c000
02e000
026000
026000
067000
043000
043000
0c3800
0ff800
081800
181c00
100c00
100c00
300e00
300e00
fc1f80
ENDCHAR
STARTCHAR B
ENCODING 66
SWIDTH 646 0
DWIDTH 16 0
BBX 14 18 1 0
BITMAP
ffe0
3070
3038
3018
3018
3018
3030
3060
3fc0
3078
3018
300c
300c
300c
300c
3018
3038
ffe0
ENDCHAR
STARTCHAR C
ENCODING 67
SWIDTH 684 0
DWIDTH 17 0
BBX 15 18 1 0
BITMAP
01f8
0e0e
1806
3002
7002
6000
6000
e000
e000
e000
e000
e000
6000
7002
3002
3806
0e0e
03f8
ENDCHAR
STARTCHAR D
ENCODING 68
SWIDTH 779 0
DWIDTH 19 0
BBX 17 18 1 0
BITMAP
ffe000
303800
300e00
300600
300700
300300
300380
300380
300380
300380
300380
300380
300300
300700
300600
300e00
303800
ffe000
ENDCHAR
STARTCHAR E
ENCODING 69
SWIDTH 606 0
DWIDTH 15 0
BBX 13 18 1 0
BITMAP
fff8
3018
3008
3008
3000
3000
3000
3020
3060
3fe0
3020
3020
3000
3000
3008
3008
3018
fff8
ENDCHAR
STARTCHAR F
ENCODING 70
SWIDTH 580 0
DWIDTH 14 0
BBX 13 18 1 0
BITMAP
fff8
3018
3008
3008
3000
3000
3000
3020
3020
3fe0
3020
3020
3000
3000
3000
3000
3000
fe00
ENDCHAR
STARTCHAR G
ENCODING 71
SWIDTH 734 0
DWIDTH 18 0
BBX 17 18 1 0
BITMAP
01f000
0e0e00
180600
300200
700200
700000
e00000
e00000
e00000
e00000
e03f80
600600
600600
700600
300600
380600
0e0600
03f800
ENDCHAR
STARTCHAR H
ENCODING 72
SWIDTH 798 0
DWIDTH 20 0
BBX 18 18 1 0
BITMAP
fe1fc0
300300
300300
300300
300300
300300
300300
300300
300300
3fff00
300300
300300
300300
300300
300300
300300
300300
fe1fc0
ENDCHAR
STARTCHAR I
ENCODING 73
SWIDTH 349 0
DWIDTH 9 0
BBX 6 18 1 0
BITMAP
fc
30
30
30
30
30
30
30
30
30
30
30
30
30
30
30
30
fc
ENDCHAR
STARTCHAR J
ENCODING 74
SWIDTH 350 0
DWIDTH 9 0
BBX 7 20 1 -2
BITMAP
7e
18
18
18
18
18
18
18
18
18
18
18
18
18
18
18
18
38
30
e0
ENDCHAR
STARTCHAR K
ENCODING 75
SWIDTH 658 0
DWIDTH 16 0
BBX 16 18 1 0
BITMAP
fc3f
3018
3030
3060
30c0
3180
3200
3400
3e00
3700
3780
33c0
31e0
30f0
3070
3038
301e
fc07
ENDCHAR
STARTCHAR L
ENCODING 76
SWIDTH 568 0
DWIDTH 14 0
BBX 13 18 1 0
BITMAP
fc00
3000
3000
3000
3000
3000
3000
3000
3000
3000
3000
3000
3000
3008
3010
3010
3030
fff0
ENDCHAR
STARTCHAR M
ENCODING 77
SWIDTH 944 0
DWIDTH 24 0
BBX 21 18 1 0
BITMAP
f80078
3800e0
3c00e0
3c01e0
2e0160
2e0360
260260
270260
230460
238460
238860
21c860
21d860
20f060
20f060
206060
706060
fc41f8
ENDCHAR
STARTCHAR N
ENCODING 78
SWIDTH 780 0
DWIDTH 19 0
BBX 18 18 1 0
BITMAP
f80fc0
3c0380
3c0100
2e0100
2f0100
278100
238100
21c100
21e100
20e100
207100
203900
203d00
201d00
200f00
200700
700700
fc0300
ENDCHAR
STARTCHAR O
ENCODING 79
SWIDTH 762 0
DWIDTH 19 0
BBX 17 18 1 0
BITMAP
03e000
0c1800
380e00
300600
700700
600300
e00380
e00380
e00380
e00380
e00380
e00380
600300
700700
300600
380e00
0c1800
03e000
ENDCHAR
STARTCHAR P
ENCODING 80
SWIDTH 600 0
DWIDTH 15 0
BBX 13 18 1 0
BITMAP
ffc0
3070
3030
3018
3018
3018
3018
3018
3030
3060
3fc0
3000
3000
3000
3000
3000
3000
fe00
ENDCHAR
STARTCHAR Q
ENCODING 81
SWIDTH 762 0
DWIDTH 19 0
BBX 17 23 1 -5
BITMAP
03e000
0c1800
380e00
300600
700700
600300
e00380
e00380
e00380
e00380
e00380
e00380
600300
700700
300600
380e00
0c1c00
03f000
00e000
00f000
007800
003c00
000f00
ENDCHAR
STARTCHAR R
ENCODING 82
SWIDTH 644 0
DWIDTH 16 0
BBX 15 18 1 0
BITMAP
ffc0
3070
3030
3018
3018
3018
3010
3030
3060
3f80
3060
3030
3030
3030
3038
3018
3018
fc0e
ENDCHAR
STARTCHAR S
ENCODING 83
SWIDTH 541 0
DWIDTH 14 0
BBX 11 18 1 0
BITMAP
0f80
30e0
2060
6020
6020
7000
7800
3e00
1f80
07c0
01c0
00e0
8060
8060
4060
4040
71c0
1f00
ENDCHAR
STARTCHAR T
ENCODING 84
SWIDTH 621 0
DWIDTH 16 0
BBX 14 18 0 0
BITMAP
fffc
c30c
c30c
8304
0300
0300
0300
0300
0300
0300
0300
0300
0300
0300
0300
0300
0300
1fe0
ENDCHAR
STARTCHAR U
ENCODING 85
SWIDTH 791 0
DWIDTH 20 0
BBX 18 18 1 0
BITMAP
fe1fc0
300300
300300
300300
300300
300300
300300
300300
300300
300300
300300
300300
300300
300300
180600
180600
0e1c00
03f000
ENDCHAR
STARTCHAR V
ENCODING 86
SWIDTH 634 0
DWIDTH 16 0
BBX 17 18 0 0
BITMAP
fc0f80
380600
380600
180400
180400
1c0c00
0c0800
0c0800
0e1000
061000
061000
072000
032000
03a000
03c000
01c000
01c000
018000
ENDCHAR
STARTCHAR W
ENCODING 87
SWIDTH 940 0
DWIDTH 23 0
BBX 25 18 0 0
BITMAP
fc001f80
70180600
301c0600
301c0400
381c0400
182e0c00
18260800
18260800
1c470800
0c431800
0c431000
0e439000
0e819000
0681a000
0681e000
0701e000
0700e000
0300c000
ENDCHAR
STARTCHAR X
ENCODING 88
SWIDTH 624 0
DWIDTH 16 0
BBX 16 18 0 0
BITMAP
fe3f
380c
1810
1c10
0e20
0640
0740
0380
0180
01c0
03c0
06e0
0460
0c70
1838
3818
301c
fc7f
ENDCHAR
STARTCHAR Y
ENCODING 89
SWIDTH 588 0
DWIDTH 15 0
BBX 16 18 0 0
BITMAP
fe3f
380c
1808
1c18
0c10
0e30
0620
0760
0340
0340
0180
0180
0180
0180
0180
0180
0180
0ff0
ENDCHAR
STARTCHAR Z
ENCODING 90
SWIDTH 610 0
DWIDTH 15 0
BBX 14 18 1 0
BITMAP
7ffc
603c
4038
4070
00f0
00e0
01c0
03c0
0380
0700
0e00
0e00
1c00
3804
3804
7004
e00c
fffc
ENDCHAR
STARTCHAR bracketleft
ENCODING 91
SWIDTH 330 0
DWIDTH 8 0
BBX 4 21 3 -3
BITMAP
f0
c0
c0
c0
c0
c0
c0
c0
c0
c0
c0
c0
c0
c0
c0
c0
c0
c0
c0
c0
f0
ENDCHAR
STARTCHAR backslash
ENCODING 92
SWIDTH 460 0
DWIDTH 11 0
BBX 7 18 2 0
BITMAP
c0
c0
40
60
60
20
30
30
10
10
18
18
08
0c
0c
04
06
06
ENDCHAR
STARTCHAR bracketright
ENCODING 93
SWIDTH 330 0
DWIDTH 8 0
BBX 4 21 1 -3
BITMAP
f0
30
30
30
30
30
30
30
30
30
30
30
30
30
30
30
30
30
30
30
f0
ENDCHAR
STARTCHAR asciicircum
ENCODING 94
SWIDTH 570 0
DWIDTH 14 0
BBX 11 11 2 6
BITMAP
0600
0e00
0a00
1b00
1100
3180
3180
2080
60c0
4040
c060
ENDCHAR
STARTCHAR underscore
ENCODING 95
SWIDTH 500 0
DWIDTH 12 0
BBX 12 1 0 -3
BITMAP
fff0
ENDCHAR
STARTCHAR grave
ENCODING 96
SWIDTH 400 0
DWIDTH 10 0
BBX 6 5 1 13
BITMAP
40
e0
70
18
04
ENDCHAR
STARTCHAR a
ENCODING 97
SWIDTH 523 0
DWIDTH 13 0
BBX 12 13 1 0
BITMAP
0f00
3180
60c0
60c0
00c0
03c0
1cc0
60c0
c0c0
c0c0
c0c0
61c0
7ef0
ENDCHAR
STARTCHAR b
ENCODING 98
SWIDTH 598 0
DWIDTH 15 0
BBX 13 19 0 0
BITMAP
3000
f000
3000
3000
3000
3000
33c0
3c70
3030
3018
3018
3018
3018
3018
3018
3010
3030
3860
2fc0
ENDCHAR
STARTCHAR c
ENCODING 99
SWIDTH 496 0
DWIDTH 12 0
BBX 10 13 2 0
BITMAP
1e00
3380
61c0
4080
c000
c000
c000
c000
c000
e040
60c0
7180
1e00
ENDCHAR
STARTCHAR d
ENCODING 100
SWIDTH 598 0
DWIDTH 15 0
BBX 13 19 2 0
BITMAP
0060
01e0
0060
0060
0060
0060
1f60
30e0
6060
6060
c060
c060
c060
c060
c060
c060
6060
70e0
1f78
ENDCHAR
STARTCHAR e
ENCODING 101
SWIDTH 514 0
DWIDTH 13 0
BBX 10 13 2 0
BITMAP
1e00
2180
6080
40c0
c0c0
ffc0
c000
c000
c000
c040
6040
7080
1f00
ENDCHAR
STARTCHAR f
ENCODING 102
SWIDTH 319 0
DWIDTH 8 0
BBX 9 19 1 0
BITMAP
0e00
1380
1100
3000
3000
3000
fe00
3000
3000
3000
3000
3000
3000
3000
3000
3000
3000
3000
fc00
ENDCHAR
STARTCHAR g
ENCODING 103
SWIDTH 520 0
DWIDTH 13 0
BBX 12 19 1 -6
BITMAP
1e30
31e0
6080
60c0
60c0
60c0
30c0
3180
1f00
2000
6000
7fc0
1fe0
6070
c030
c030
c020
70e0
1f00
ENDCHAR
STARTCHAR h
ENCODING 104
SWIDTH 607 0
DWIDTH 15 0
BBX 14 19 1 0
BITMAP
3000
f000
3000
3000
3000
3000
33c0
3c60
3830
3030
3030
3030
3030
3030
3030
3030
3030
3030
fcfc
ENDCHAR
STARTCHAR i
ENCODING 105
SWIDTH 291 0
DWIDTH 7 0
BBX 6 18 1 0
BITMAP
30
30
30
00
00
30
f0
30
30
30
30
30
30
30
30
30
30
fc
ENDCHAR
STARTCHAR j
ENCODING 106
SWIDTH 280 0
DWIDTH 7 0
BBX 5 24 0 -6
BITMAP
38
38
38
00
00
18
78
18
18
18
18
18
18
18
18
18
18
18
18
18
10
30
60
c0
ENDCHAR
STARTCHAR k
ENCODING 107
SWIDTH 524 0
DWIDTH 13 0
BBX 13 19 1 0
BITMAP
3000
f000
3000
3000
3000
3000
30f0
31c0
3180
3300
3600
3c00
3e00
3e00
3700
3380
31c0
30f0
fc38
ENDCHAR
STARTCHAR l
ENCODING 108
SWIDTH 279 0
DWIDTH 7 0
BBX 6 19 1 0
BITMAP
30
f0
30
30
30
30
30
30
30
30
30
30
30
30
30
30
30
30
fc
ENDCHAR
STARTCHAR m
ENCODING 109
SWIDTH 923 0
DWIDTH 23 0
BBX 22 13 1 0
BITMAP
33e3c0
fc7c60
383030
303030
303030
303030
303030
303030
303030
303030
303030
303030
fcfcfc
ENDCHAR
STARTCHAR n
ENCODING 110
SWIDTH 619 0
DWIDTH 15 0
BBX 14 13 1 0
BITMAP
33c0
fc60
3830
3030
3030
3030
3030
3030
3030
3030
3030
3030
fcfc
ENDCHAR
STARTCHAR o
ENCODING 111
SWIDTH 577 0
DWIDTH 14 0
BBX 11 13 2 0
BITMAP
1f00
3180
60c0
c060
c060
c060
c060
c060
c060
c060
60c0
3180
1f00
ENDCHAR
STARTCHAR p
ENCODING 112
SWIDTH 608 0
DWIDTH 15 0
BBX 13 19 1 -6
BITMAP
33c0
fc70
3830
3018
3018
3018
3018
3018
3018
3030
3030
3860
37c0
3000
3000
3000
3000
3000
fc00
ENDCHAR
STARTCHAR q
ENCODING 113
SWIDTH 591 0
DWIDTH 15 0
BBX 13 19 2 -6
BITMAP
1f20
30e0
6060
6060
c060
c060
c060
c060
c060
c060
6060
70e0
1f60
0060
0060
0060
0060
0060
01f8
ENDCHAR
STARTCHAR r
ENCODING 114
SWIDTH 389 0
DWIDTH 10 0
BBX 9 13 1 0
BITMAP
3380
ff00
3000
3000
3000
3000
3000
3000
3000
3000
3000
3000
fc00
ENDCHAR
STARTCHAR s
ENCODING 115
SWIDTH 436 0
DWIDTH 11 0
BBX 9 13 1 0
BITMAP
3c00
6300
c100
c100
e000
7c00
3f00
0f80
8380
8180
c180
c300
3e00
ENDCHAR
STARTCHAR t
ENCODING 116
SWIDTH 344 0
DWIDTH 9 0
BBX 8 16 1 0
BITMAP
10
10
30
fe
30
30
30
30
30
30
30
30
30
30
30
1f
ENDCHAR
STARTCHAR u
ENCODING 117
SWIDTH 606 0
DWIDTH 15 0
BBX 14 13 1 0
BITMAP
3030
f0f0
3030
3030
3030
3030
3030
3030
3030
3030
3030
38f0
0f3c
ENDCHAR
STARTCHAR v
ENCODING 118
SWIDTH 504 0
DWIDTH 13 0
BBX 13 13 0 0
BITMAP
fcf8
7030
3020
3860
1840
1840
18c0
0c80
0c80
0c80
0700
0700
0600
ENDCHAR
STARTCHAR w
ENCODING 119
SWIDTH 768 0
DWIDTH 19 0
BBX 20 13 0 0
BITMAP
f801f0
706060
306040
30b0c0
30b080
189880
199880
191900
091d00
0d0d00
0f0d00
060e00
060600
ENDCHAR
STARTCHAR x
ENCODING 120
SWIDTH 486 0
DWIDTH 12 0
BBX 13 13 0 0
BITMAP
f9f0
70c0
3880
1900
1f00
0e00
0700
0f00
0980
19c0
10c0
30e0
f9f8
ENDCHAR
STARTCHAR y
ENCODING 121
SWIDTH 506 0
DWIDTH 13 0
BBX 13 19 0 -6
BITMAP
f8f8
7030
3020
3860
1840
1840
1cc0
0c80
0c80
0700
0700
0700
0200
0200
0200
0400
0400
3800
7000
ENDCHAR
STARTCHAR z
ENCODING 122
SWIDTH 480 0
DWIDTH 12 0
BBX 11 13 0 0
BITMAP
7fe0
60e0
41c0
4380
0300
0700
0e00
1c00
1c00
3820
7020
7060
ffe0
ENDCHAR
STARTCHAR braceleft
ENCODING 123
SWIDTH 340 0
DWIDTH 8 0
BBX 6 21 2 -3
BITMAP
1c
10
30
30
30
30
30
30
30
20
c0
20
30
30
30
30
30
30
30
10
0c
ENDCHAR
STARTCHAR bar
ENCODING 124
SWIDTH 228 0
DWIDTH 6 0
BBX 2 18 2 0
BITMAP
c0
c0
c0
c0
c0
c0
c0
c0
c0
c0
c0
c0
c0
c0
c0
c0
c0
c0
ENDCHAR
STARTCHAR braceright
ENCODING 125
SWIDTH 340 0
DWIDTH 8 0
BBX 6 21 1 -3
BITMAP
e0
20
30
30
30
30
30
30
30
10
0c
30
30
30
30
30
30
30
30
20
c0
ENDCHAR
STARTCHAR asciitilde
ENCODING 126
SWIDTH 570 0
DWIDTH 14 0
BBX 11 4 2 4
BITMAP
1060
7ec0
4fc0
c000
ENDCHAR
STARTCHAR nobreakspace
ENCODING 160
SWIDTH 225 0
DWIDTH 6 0
BBX 0 0 0 0
BITMAP
ENDCHAR
STARTCHAR Aogonek
ENCODING 161
SWIDTH 635 0
DWIDTH 16 0
BBX 17 24 -1 -6
BITMAP
00c000
01c000
01c000
02e000
026000
026000
067000
043000
043000
0c3800
0ff800
081800
181c00
100c00
100c00
300e00
300e00
fc1f80
004000
018000
010000
030000
030000
01e000
ENDCHAR
STARTCHAR breve
ENCODING 162
SWIDTH 400 0
DWIDTH 10 0
BBX 8 4 1 14
BITMAP
81
c3
7e
3c
ENDCHAR
STARTCHAR Lstroke
ENCODING 163
SWIDTH 574 0
DWIDTH 14 0
BBX 13 18 2 0
BITMAP
fc00
3000
3000
3000
3000
3200
3600
3c00
3800
7000
f000
b000
3000
3008
3010
3010
3030
fff0
ENDCHAR
STARTCHAR currency
ENCODING 164
SWIDTH 530 0
DWIDTH 13 0
BBX 11 11 1 3
BITMAP
ce60
71c0
60c0
c060
c060
c060
c060
c060
60c0
71c0
ce60
ENDCHAR
STARTCHAR Lcaron
ENCODING 165
SWIDTH 568 0
DWIDTH 14 0
BBX 13 20 1 0
BITMAP
0080
00c0
fcc0
30c0
3080
3080
3100
3000
3000
3000
3000
3000
3000
3000
3000
3008
3010
3010
3030
fff0
ENDCHAR
STARTCHAR Sacute
ENCODING 166
SWIDTH 541 0
DWIDTH 14 0
BBX 12 24 1 0
BITMAP
0020
0070
00e0
0180
0200
0000
0f80
30e0
2060
6020
6020
7000
7800
3e00
1f80
07c0
01c0
00e0
8060
8060
4060
4040
71c0
1f00
ENDCHAR
STARTCHAR section
ENCODING 167
SWIDTH 554 0
DWIDTH 14 0
BBX 12 21 1 -3
BITMAP
0f80
18e0
3040
3000
3800
5c00
8f00
87c0
81e0
c0e0
6030
7810
3c10
0f10
0790
01e0
00c0
00c0
30c0
3980
0e00
ENDCHAR
STARTCHAR diaeresis
ENCODING 168
SWIDTH 400 0
DWIDTH 10 0
BBX 8 3 1 14
BITMAP
e7
e7
42
ENDCHAR
STARTCHAR Scaron
ENCODING 169
SWIDTH 541 0
DWIDTH 14 0
BBX 11 23 1 0
BITMAP
1860
0cc0
0780
0300
0000
0f80
30e0
2060
6020
6020
7000
7800
3e00
1f80
07c0
01c0
00e0
8060
8060
4060
4040
71c0
1f00
ENDCHAR
STARTCHAR Scedilla
ENCODING 170
SWIDTH 541 0
DWIDTH 14 0
BBX 11 24 1 -6
BITMAP
0f80
30e0
2060
6020
6020
7000
7800
3e00
1f80
07c0
01c0
00e0
8060
8060
4060
4040
71c0
1f00
0600
0e00
0300
0300
0300
0e00
ENDCHAR
STARTCHAR Tcaron
ENCODING 171
SWIDTH 621 0
DWIDTH 16 0
BBX 14 23 0 0
BITMAP
1860
0cc0
0780
0300
0000
fffc
c30c
c30c
8304
0300
0300
0300
0300
0300
0300
0300
0300
0300
0300
0300
0300
0300
1fe0
ENDCHAR
STARTCHAR Zacute
ENCODING 172
SWIDTH 610 0
DWIDTH 15 0
BBX 14 24 1 0
BITMAP
0010
0038
0070
00c0
0100
0000
7ffc
603c
4038
4070
00f0
00e0
01c0
03c0
0380
0700
0e00
0e00
1c00
3804
3804
7004
e00c
fffc
ENDCHAR
STARTCHAR hyphen
ENCODING 173
SWIDTH 392 0
DWIDTH 10 0
BBX 6 2 2 5
BITMAP
fc
fc
ENDCHAR
STARTCHAR Zcaron
ENCODING 174
SWIDTH 610 0
DWIDTH 15 0
BBX 14 23 1 0
BITMAP
0c30
0660
03c0
0180
0000
7ffc
603c
4038
4070
00f0
00e0
01c0
03c0
0380
0700
0e00
0e00
1c00
3804
3804
7004
e00c
fffc
ENDCHAR
STARTCHAR Zabovedot
ENCODING 175
SWIDTH 610 0
DWIDTH 15 0
BBX 14 22 1 0
BITMAP
0380
0380
0100
0000
7ffc
603c
4038
4070
00f0
00e0
01c0
03c0
0380
0700
0e00
0e00
1c00
3804
3804
7004
e00c
fffc
ENDCHAR
STARTCHAR degree
ENCODING 176
SWIDTH 350 0
DWIDTH 9 0
BBX 7 7 1 10
BITMAP
38
44
82
82
82
44
38
ENDCHAR
STARTCHAR aogonek
ENCODING 177
SWIDTH 523 0
DWIDTH 13 0
BBX 12 19 1 -6
BITMAP
0f00
3180
60c0
60c0
00c0
03c0
1cc0
60c0
c0c0
c0c0
c0c0
61c0
7ef0
0200
0c00
0800
1800
1800
0f00
ENDCHAR
STARTCHAR ogonek
ENCODING 178
SWIDTH 400 0
DWIDTH 10 0
BBX 5 6 2 -6
BITMAP
10
60
40
c0
c0
78
ENDCHAR
STARTCHAR lstroke
ENCODING 179
SWIDTH 294 0
DWIDTH 7 0
BBX 7 19 0 0
BITMAP
18
78
18
18
18
18
1a
1e
1c
18
38
58
98
18
18
18
18
18
7e
ENDCHAR
STARTCHAR acute
ENCODING 180
SWIDTH 400 0
DWIDTH 10 0
BBX 6 5 3 13
BITMAP
08
1c
38
60
80
ENDCHAR
STARTCHAR lcaron
ENCODING 181
SWIDTH 360 0
DWIDTH 9 0
BBX 8 21 1 0
BITMAP
02
03
33
f3
32
32
34
30
30
30
30
30
30
30
30
30
30
30
30
30
fc
ENDCHAR
STARTCHAR sacute
ENCODING 182
SWIDTH 436 0
DWIDTH 11 0
BBX 9 19 1 0
BITMAP
0100
0380
0700
0c00
1000
0000
3c00
6300
c100
c100
e000
7c00
3f00
0f80
8380
8180
c180
c300
3e00
ENDCHAR
STARTCHAR caron
ENCODING 183
SWIDTH 400 0
DWIDTH 10 0
BBX 8 4 1 14
BITMAP
c3
66
3c
18
ENDCHAR
STARTCHAR cedilla
ENCODING 184
SWIDTH 400 0
DWIDTH 10 0
BBX 4 6 4 -6
BITMAP
60
e0
30
30
30
e0
ENDCHAR
STARTCHAR scaron
ENCODING 185
SWIDTH 436 0
DWIDTH 11 0
BBX 9 18 1 0
BITMAP
c300
6600
3c00
1800
0000
3c00
6300
c100
c100
e000
7c00
3f00
0f80
8380
8180
c180
c300
3e00
ENDCHAR
STARTCHAR scedilla
ENCODING 186
SWIDTH 436 0
DWIDTH 11 0
BBX 9 19 1 -6
BITMAP
3c00
6300
c100
c100
e000
7c00
3f00
0f80
8380
8180
c180
c300
3e00
0c00
1c00
0600
0600
0600
1c00
ENDCHAR
STARTCHAR tcaron
ENCODING 187
SWIDTH 344 0
DWIDTH 9 0
BBX 8 21 1 0
BITMAP
02
03
03
03
02
12
14
30
fe
30
30
30
30
30
30
30
30
30
30
30
1f
ENDCHAR
STARTCHAR zacute
ENCODING 188
SWIDTH 480 0
DWIDTH 12 0
BBX 11 19 0 0
BITMAP
0040
00e0
01c0
0300
0400
0000
7fe0
60e0
41c0
4380
0300
0700
0e00
1c00
1c00
3820
7020
7060
ffe0
ENDCHAR
STARTCHAR doubleacute
ENCODING 189
SWIDTH 400 0
DWIDTH 10 0
BBX 7 5 3 14
BITMAP
26
66
6c
c8
88
ENDCHAR
STARTCHAR zcaron
ENCODING 190
SWIDTH 480 0
DWIDTH 12 0
BBX 11 18 0 0
BITMAP
30c0
1980
0f00
0600
0000
7fe0
60e0
41c0
4380
0300
0700
0e00
1c00
1c00
3820
7020
7060
ffe0
ENDCHAR
STARTCHAR zabovedot
ENCODING 191
SWIDTH 480 0
DWIDTH 12 0
BBX 11 17 0 0
BITMAP
0e00
0e00
0400
0000
7fe0
60e0
41c0
4380
0300
0700
0e00
1c00
1c00
3820
7020
7060
ffe0
ENDCHAR
STARTCHAR Racute
ENCODING 192
SWIDTH 644 0
DWIDTH 16 0
BBX 15 24 1 0
BITMAP
0040
00e0
01c0
0300
0400
0000
ffc0
3070
3030
3018
3018
3018
3010
3030
3060
3f80
3060
3030
3030
3030
3038
3018
3018
fc0e
ENDCHAR
STARTCHAR Aacute
ENCODING 193
SWIDTH 635 0
DWIDTH 16 0
BBX 16 23 0 0
BITMAP
0020
00e0
01c0
0600
0000
0180
0180
02c0
02c0
02c0
0460
0460
0c60
0870
0830
0ff0
1038
1018
1018
2018
200c
600c
f83f
ENDCHAR
STARTCHAR Acircumflex
ENCODING 194
SWIDTH 635 0
DWIDTH 16 0
BBX 17 22 -1 0
BITMAP
008000
01e000
023000
040800
00c000
01c000
01c000
02e000
026000
026000
067000
043000
043000
0c3800
0ff800
081800
181c00
100c00
100c00
300e00
300e00
fc1f80
ENDCHAR
STARTCHAR Abreve
ENCODING 195
SWIDTH 635 0
DWIDTH 16 0
BBX 17 23 -1 0
BITMAP
040800
061800
03f000
01e000
000000
00c000
01c000
01c000
02e000
026000
026000
067000
043000
043000
0c3800
0ff800
081800
181c00
100c00
100c00
300e00
300e00
fc1f80
ENDCHAR
STARTCHAR Adiaeresis
ENCODING 196
SWIDTH 635 0
DWIDTH 16 0
BBX 16 21 0 0
BITMAP
0e70
0e70
0000
0180
0180
02c0
02c0
02c0
04e0
0460
0c60
0870
0830
0ff0
1038
1018
1018
201c
200c
600e
f83f
ENDCHAR
STARTCHAR Lacute
ENCODING 197
SWIDTH 568 0
DWIDTH 14 0
BBX 13 24 1 0
BITMAP
0200
0700
0e00
1800
2000
0000
fc00
3000
3000
3000
3000
3000
3000
3000
3000
3000
3000
3000
3000
3008
3010
3010
3030
fff0
ENDCHAR
STARTCHAR Cacute
ENCODING 198
SWIDTH 684 0
DWIDTH 17 0
BBX 15 24 1 0
BITMAP
0008
001c
0038
0060
0080
0000
01f8
0e0e
1806
3002
7002
6000
6000
e000
e000
e000
e000
e000
6000
7002
3002
3806
0e0e
03f8
ENDCHAR
STARTCHAR Ccedilla
ENCODING 199
SWIDTH 680 0
DWIDTH 17 0
BBX 15 24 1 -6
BITMAP
01f8
0e0e
1806
3002
7002
6000
6000
e000
e000
e000
e000
e000
6000
7002
3002
3806
0e0e
03f8
0080
01c0
0060
0060
0060
01c0
ENDCHAR
STARTCHAR Ccaron
ENCODING 200
SWIDTH 684 0
DWIDTH 17 0
BBX 15 23 1 0
BITMAP
0618
0330
01e0
00c0
0000
01f8
0e0e
1806
3002
7002
6000
6000
e000
e000
e000
e000
e000
6000
7002
3002
3806
0e0e
03f8
ENDCHAR
STARTCHAR Eacute
ENCODING 201
SWIDTH 606 0
DWIDTH 15 0
BBX 13 23 1 0
BITMAP
0040
01c0
0380
0c00
0000
fff8
3018
3008
3008
3000
3000
3000
3020
3060
3fe0
3020
3020
3000
3000
3008
3008
3018
fff8
ENDCHAR
STARTCHAR Eogonek
ENCODING 202
SWIDTH 606 0
DWIDTH 15 0
BBX 13 24 1 -6
BITMAP
fff8
3018
3008
3008
3000
3000
3000
3020
3060
3fe0
3020
3020
3000
3000
3008
3008
3018
fff8
0100
0600
0400
0c00
0c00
0780
ENDCHAR
STARTCHAR Ediaeresis
ENCODING 203
SWIDTH 606 0
DWIDTH 15 0
BBX 13 21 1 0
BITMAP
38e0
38e0
0000
fff8
3018
3008
3008
3000
3000
3000
3020
3060
3fe0
3020
3020
3000
3000
3008
3008
3018
fff8
ENDCHAR
STARTCHAR Ecaron
ENCODING 204
SWIDTH 606 0
DWIDTH 15 0
BBX 13 23 1 0
BITMAP
1860
0cc0
0780
0300
0000
fff8
3018
3008
3008
3000
3000
3000
3020
3060
3fe0
3020
3020
3000
3000
3008
3008
3018
fff8
ENDCHAR
STARTCHAR Iacute
ENCODING 205
SWIDTH 349 0
DWIDTH 9 0
BBX 7 23 1 0
BITMAP
04
0e
38
60
00
fc
30
30
30
30
30
30
30
30
30
30
30
30
30
30
30
30
fc
ENDCHAR
STARTCHAR Icircumflex
ENCODING 206
SWIDTH 349 0
DWIDTH 9 0
BBX 8 22 0 0
BITMAP
18
3c
66
81
7e
18
18
18
18
18
18
18
18
18
18
18
18
18
18
18
18
7e
ENDCHAR
STARTCHAR Dcaron
ENCODING 207
SWIDTH 779 0
DWIDTH 19 0
BBX 17 23 1 0
BITMAP
0c3000
066000
03c000
018000
000000
ffe000
303800
300e00
300600
300700
300300
300380
300380
300380
300380
300380
300380
300300
300700
300600
300e00
303800
ffe000
ENDCHAR
STARTCHAR Dstroke
ENCODING 208
SWIDTH 785 0
DWIDTH 20 0
BBX 18 18 1 0
BITMAP
7ff000
181c00
180f00
180300
180380
180380
1801c0
1801c0
1801c0
ff01c0
1801c0
1801c0
180180
180380
180300
180700
181c00
7ff000
ENDCHAR
STARTCHAR Nacute
ENCODING 209
SWIDTH 780 0
DWIDTH 19 0
BBX 18 24 1 0
BITMAP
000800
001c00
003800
006000
008000
000000
f80fc0
3c0380
3c0100
2e0100
2f0100
278100
238100
21c100
21e100
20e100
207100
203900
203d00
201d00
200f00
200700
700700
fc0300
ENDCHAR
STARTCHAR Ncaron
ENCODING 210
SWIDTH 780 0
DWIDTH 19 0
BBX 18 23 1 0
BITMAP
061800
033000
01e000
00c000
000000
f80fc0
3c0380
3c0100
2e0100
2f0100
278100
238100
21c100
21e100
20e100
207100
203900
203d00
201d00
200f00
200700
700700
fc0300
ENDCHAR
STARTCHAR Oacute
ENCODING 211
SWIDTH 762 0
DWIDTH 19 0
BBX 17 23 1 0
BITMAP
001000
007000
01e000
030000
000000
03e000
0c1800
380e00
300600
700700
600300
e00380
e00380
e00380
e00380
e00380
e00380
600300
700700
300600
380e00
0c1800
03e000
ENDCHAR
STARTCHAR Ocircumflex
ENCODING 212
SWIDTH 762 0
DWIDTH 19 0
BBX 17 22 1 0
BITMAP
008000
01c000
063000
041000
03e000
0c1800
380e00
300600
700700
600300
e00380
e00380
e00380
e00380
e00380
e00380
600300
700700
300600
380e00
0c1800
03e000
ENDCHAR
STARTCHAR Odoubleacute
ENCODING 213
SWIDTH 762 0
DWIDTH 19 0
BBX 17 24 1 0
BITMAP
009800
019800
01b000
032000
022000
000000
03e000
0c1800
380e00
300600
700700
600300
e00380
e00380
e00380
e00380
e00380
e00380
600300
700700
300600
380e00
0c1800
03e000
ENDCHAR
STARTCHAR Odiaeresis
ENCODING 214
SWIDTH 762 0
DWIDTH 19 0
BBX 17 21 1 0
BITMAP
0e3800
0e3800
000000
03e000
0c1800
380e00
300600
700700
600300
e00380
e00380
e00380
e00380
e00380
e00380
600300
700700
300600
380e00
0c1800
03e000
ENDCHAR
STARTCHAR multiply
ENCODING 215
SWIDTH 570 0
DWIDTH 14 0
BBX 11 11 2 1
BITMAP
4040
e0e0
71c0
3b80
1f00
0e00
1f00
3b80
71c0
e0e0
4040
ENDCHAR
STARTCHAR Rcaron
ENCODING 216
SWIDTH 644 0
DWIDTH 16 0
BBX 15 23 1 0
BITMAP
30c0
1980
0f00
0600
0000
ffc0
3070
3030
3018
3018
3018
3010
3030
3060
3f80
3060
3030
3030
3030
3038
3018
3018
fc0e
ENDCHAR
STARTCHAR Uring
ENCODING 217
SWIDTH 791 0
DWIDTH 20 0
BBX 18 24 1 0
BITMAP
00c000
012000
012000
012000
00c000
000000
fe1fc0
300300
300300
300300
300300
300300
300300
300300
300300
300300
300300
300300
300300
300300
180600
180600
0e1c00
03f000
ENDCHAR
STARTCHAR Uacute
ENCODING 218
SWIDTH 791 0
DWIDTH 20 0
BBX 18 23 1 0
BITMAP
001000
007000
00e000
030000
000000
fe1fc0
300300
300300
300300
300300
300300
300300
300300
300300
300300
300300
300300
300300
300300
180600
180600
0e1c00
03f000
ENDCHAR
STARTCHAR Udoubleacute
ENCODING 219
SWIDTH 791 0
DWIDTH 20 0
BBX 18 24 1 0
BITMAP
009800
019800
01b000
032000
022000
000000
fe1fc0
300300
300300
300300
300300
300300
300300
300300
300300
300300
300300
300300
300300
300300
180600
180600
0e1c00
03f000
ENDCHAR
STARTCHAR Udiaeresis
ENCODING 220
SWIDTH 791 0
DWIDTH 20 0
BBX 18 21 1 0
BITMAP
073800
073800
000000
fe1fc0
300300
300300
300300
300300
300300
300300
300300
300300
300300
300300
300300
300300
300300
180600
180600
0e1c00
03f000
ENDCHAR
STARTCHAR Yacute
ENCODING 221
SWIDTH 588 0
DWIDTH 15 0
BBX 16 23 0 0
BITMAP
0010
0070
00e0
0180
0000
fe3f
380c
1808
1c18
0c10
0e30
0620
0760
0340
0340
0180
0180
0180
0180
0180
0180
0180
0ff0
ENDCHAR
STARTCHAR Tcedilla
ENCODING 222
SWIDTH 621 0
DWIDTH 16 0
BBX 14 24 0 -6
BITMAP
fffc
c30c
c30c
8304
0300
0300
0300
0300
0300
0300
0300
0300
0300
0300
0300
0300
0300
1fe0
0300
0700
0180
0180
0180
0700
ENDCHAR
STARTCHAR ssharp
ENCODING 223
SWIDTH 601 0
DWIDTH 15 0
BBX 13 19 1 0
BITMAP
07c0
08e0
1820
1030
3030
3060
3080
3100
3300
3300
3180
31e0
3070
3030
3018
3018
3218
3310
fde0
ENDCHAR
STARTCHAR racute
ENCODING 224
SWIDTH 389 0
DWIDTH 10 0
BBX 10 19 1 0
BITMAP
0080
01c0
0380
0600
0800
0000
3380
ff00
3000
3000
3000
3000
3000
3000
3000
3000
3000
3000
fc00
ENDCHAR
STARTCHAR aacute
ENCODING 225
SWIDTH 523 0
DWIDTH 13 0
BBX 12 18 1 0
BITMAP
0080
01c0
0700
0c00
1000
0f00
3180
60c0
60c0
00c0
03c0
1cc0
60c0
c0c0
c0c0
c0c0
61c0
7ef0
ENDCHAR
STARTCHAR acircumflex
ENCODING 226
SWIDTH 523 0
DWIDTH 13 0
BBX 12 18 1 0
BITMAP
0400
1e00
3100
60c0
0000
0f00
3180
60c0
60c0
00c0
03c0
1cc0
60c0
c0c0
c0c0
c0c0
61c0
7ef0
ENDCHAR
STARTCHAR abreve
ENCODING 227
SWIDTH 523 0
DWIDTH 13 0
BBX 12 18 1 0
BITMAP
2040
30c0
1f80
0f00
0000
0f00
3180
60c0
60c0
00c0
03c0
1cc0
60c0
c0c0
c0c0
c0c0
61c0
7ef0
ENDCHAR
STARTCHAR adiaeresis
ENCODING 228
SWIDTH 523 0
DWIDTH 13 0
BBX 12 17 1 0
BITMAP
71c0
71c0
2080
0000
0f00
3180
60c0
60c0
00c0
03c0
1cc0
60c0
c0c0
c0c0
c0c0
61c0
7ef0
ENDCHAR
STARTCHAR lacute
ENCODING 229
SWIDTH 279 0
DWIDTH 7 0
BBX 7 25 1 0
BITMAP
04
0e
1c
30
40
00
30
f0
30
30
30
30
30
30
30
30
30
30
30
30
30
30
30
30
fc
ENDCHAR
STARTCHAR cacute
ENCODING 230
SWIDTH 496 0
DWIDTH 12 0
BBX 11 19 2 0
BITMAP
0040
00e0
01c0
0300
0400
0000
1e00
3380
61c0
4080
c000
c000
c000
c000
c000
e040
60c0
7180
1e00
ENDCHAR
STARTCHAR ccedilla
ENCODING 231
SWIDTH 496 0
DWIDTH 12 0
BBX 10 19 2 -6
BITMAP
1e00
3380
6180
4180
c000
c000
c000
c000
c000
c040
6080
7180
3e00
0800
0c00
0600
0600
0600
1c00
ENDCHAR
STARTCHAR ccaron
ENCODING 232
SWIDTH 496 0
DWIDTH 12 0
BBX 10 18 2 0
BITMAP
30c0
1980
0f00
0600
0000
1e00
3380
61c0
4080
c000
c000
c000
c000
c000
e040
60c0
7180
1e00
ENDCHAR
STARTCHAR eacute
ENCODING 233
SWIDTH 514 0
DWIDTH 13 0
BBX 10 18 2 0
BITMAP
0180
0700
0e00
1800
0000
1e00
2180
6080
40c0
c0c0
ffc0
c000
c000
c000
c040
6040
7080
1f00
ENDCHAR
STARTCHAR eogonek
ENCODING 234
SWIDTH 514 0
DWIDTH 13 0
BBX 10 19 2 -6
BITMAP
1e00
2180
6080
40c0
c0c0
ffc0
c000
c000
c000
c040
6040
7080
1f00
0400
1800
1000
3000
3000
1e00
ENDCHAR
STARTCHAR ediaeresis
ENCODING 235
SWIDTH 514 0
DWIDTH 13 0
BBX 10 17 2 0
BITMAP
e380
e380
4100
0000
1e00
2180
6080
40c0
c0c0
ffc0
c000
c000
c000
c040
6040
7080
1f00
ENDCHAR
STARTCHAR ecaron
ENCODING 236
SWIDTH 514 0
DWIDTH 13 0
BBX 10 18 2 0
BITMAP
6180
3300
1e00
0c00
0000
1e00
2180
6080
40c0
c0c0
ffc0
c000
c000
c000
c040
6040
7080
1f00
ENDCHAR
STARTCHAR iacute
ENCODING 237
SWIDTH 291 0
DWIDTH 7 0
BBX 6 18 1 0
BITMAP
1c
18
30
40
00
30
f0
30
30
30
30
30
30
30
30
30
30
fc
ENDCHAR
STARTCHAR icircumflex
ENCODING 238
SWIDTH 291 0
DWIDTH 7 0
BBX 8 18 0 0
BITMAP
18
3c
64
c3
00
18
78
18
18
18
18
18
18
18
18
18
18
7e
ENDCHAR
STARTCHAR dcaron
ENCODING 239
SWIDTH 680 0
DWIDTH 17 0
BBX 15 21 2 0
BITMAP
0004
0006
0066
01e6
0064
0064
0068
0060
1f60
30e0
6060
6060
c060
c060
c060
c060
c060
c060
6060
70e0
1f78
ENDCHAR
STARTCHAR dstroke
ENCODING 240
SWIDTH 640 0
DWIDTH 16 0
BBX 14 19 2 0
BITMAP
0060
01e0
0060
03fc
03fc
0060
1f60
30e0
6060
6060
c060
c060
c060
c060
c060
c060
6060
70e0
1f78
ENDCHAR
STARTCHAR nacute
ENCODING 241
SWIDTH 619 0
DWIDTH 15 0
BBX 14 19 1 0
BITMAP
0040
00e0
01c0
0300
0400
0000
33c0
fc60
3830
3030
3030
3030
3030
3030
3030
3030
3030
3030
fcfc
ENDCHAR
STARTCHAR ncaron
ENCODING 242
SWIDTH 619 0
DWIDTH 15 0
BBX 14 18 1 0
BITMAP
30c0
1980
0f00
0600
0000
33c0
fc60
3830
3030
3030
3030
3030
3030
3030
3030
3030
3030
fcfc
ENDCHAR
STARTCHAR oacute
ENCODING 243
SWIDTH 577 0
DWIDTH 14 0
BBX 11 18 2 0
BITMAP
0180
0300
0e00
1800
0000
1f00
3180
60c0
c060
c060
c060
c060
c060
c060
c060
60c0
3180
1f00
ENDCHAR
STARTCHAR ocircumflex
ENCODING 244
SWIDTH 577 0
DWIDTH 14 0
BBX 11 18 2 0
BITMAP
0400
0e00
1100
2080
0000
1f00
3180
60c0
c060
c060
c060
c060
c060
c060
c060
60c0
3180
1f00
ENDCHAR
STARTCHAR odoubleacute
ENCODING 245
SWIDTH 577 0
DWIDTH 14 0
BBX 11 19 2 0
BITMAP
04c0
0cc0
0d80
1900
1100
0000
1f00
3180
60c0
c060
c060
c060
c060
c060
c060
c060
60c0
3180
1f00
ENDCHAR
STARTCHAR odiaeresis
ENCODING 246
SWIDTH 577 0
DWIDTH 14 0
BBX 11 17 2 0
BITMAP
7380
7380
2100
0000
1f00
3180
60c0
c060
c060
c060
c060
c060
c060
c060
60c0
3180
1f00
ENDCHAR
STARTCHAR division
ENCODING 247
SWIDTH 570 0
DWIDTH 14 0
BBX 12 11 2 1
BITMAP
0e00
0e00
0e00
0000
0000
fff0
0000
0000
0e00
0e00
0e00
ENDCHAR
STARTCHAR rcaron
ENCODING 248
SWIDTH 389 0
DWIDTH 10 0
BBX 9 18 1 0
BITMAP
6180
3300
1e00
0c00
0000
3380
ff00
3000
3000
3000
3000
3000
3000
3000
3000
3000
3000
fc00
ENDCHAR
STARTCHAR uring
ENCODING 249
SWIDTH 606 0
DWIDTH 15 0
BBX 14 19 1 0
BITMAP
0600
0900
0900
0900
0600
0000
3030
f0f0
3030
3030
3030
3030
3030
3030
3030
3030
3030
38f0
0f3c
ENDCHAR
STARTCHAR uacute
ENCODING 250
SWIDTH 606 0
DWIDTH 15 0
BBX 14 18 1 0
BITMAP
0060
00c0
0180
0600
0000
3030
f0f0
3030
3030
3030
3030
3030
3030
3030
3030
3030
38f0
0f3c
ENDCHAR
STARTCHAR udoubleacute
ENCODING 251
SWIDTH 606 0
DWIDTH 15 0
BBX 14 19 1 0
BITMAP
04c0
0cc0
0d80
1900
1100
0000
3030
f0f0
3030
3030
3030
3030
3030
3030
3030
3030
3030
38f0
0f3c
ENDCHAR
STARTCHAR udiaeresis
ENCODING 252
SWIDTH 606 0
DWIDTH 15 0
BBX 14 17 1 0
BITMAP
38e0
38e0
1040
0000
3030
f0f0
3030
3030
3030
3030
3030
3030
3030
3030
3030
38f0
0f3c
ENDCHAR
STARTCHAR yacute
ENCODING 253
SWIDTH 506 0
DWIDTH 13 0
BBX 13 25 0 -6
BITMAP
0040
00e0
0180
0300
0400
0000
f8f8
7030
3020
3860
1840
1840
1cc0
0c80
0c80
0700
0700
0700
0200
0200
0200
0400
0400
3800
7000
ENDCHAR
STARTCHAR tcedilla
ENCODING 254
SWIDTH 344 0
DWIDTH 9 0
BBX 8 22 1 -6
BITMAP
10
10
30
fe
30
30
30
30
30
30
30
30
30
30
30
1f
18
38
0c
0c
0c
38
ENDCHAR
STARTCHAR abovedot
ENCODING 255
SWIDTH 400 0
DWIDTH 10 0
BBX 3 3 3 14
BITMAP
e0
e0
40
ENDCHAR
ENDFONT
